HIERARCHY
ROOT Hips
{
	OFFSET 0.000000 0.000000 0.000000 
	CHANNELS 6 Xposition Yposition Zposition Zrotation Yrotation Xrotation
	JOINT LeftUpLeg
	{
		OFFSET 1.363060 -1.794630 0.839290 
		CHANNELS 3 Zrotation Yrotation Xrotation
		JOINT LeftLeg
		{
			OFFSET 2.448110 -6.726130 0.000000 
			CHANNELS 3 Zrotation Yrotation Xrotation
			JOINT LeftFoot
			{
				OFFSET 2.562200 -7.039590 0.000000 
				CHANNELS 3 Zrotation Yrotation Xrotation
				JOINT LeftToeBase
				{
					OFFSET 0.157640 -0.433110 2.322550 
					CHANNELS 3 Zrotation Yrotation Xrotation
					End Site
					{
						OFFSET 0.000000 0.000000 0.000000 
					}
				}
			}
		}
	}
	JOINT RightUpLeg
	{
		OFFSET -1.305520 -1.794630 0.839290 
		CHANNELS 3 Zrotation Yrotation Xrotation
		JOINT RightLeg
		{
			OFFSET -2.542530 -6.985550 0.000000 
			CHANNELS 3 Zrotation Yrotation Xrotation
			JOINT RightFoot
			{
				OFFSET -2.568260 -7.056230 0.000000 
				CHANNELS 3 Zrotation Yrotation Xrotation
				JOINT RightToeBase
				{
					OFFSET -0.164730 -0.452590 2.363150 
					CHANNELS 3 Zrotation Yrotation Xrotation
					End Site
					{
						OFFSET 0.000000 0.000000 0.000000 
					}
				}
			}
		}
	}
	JOINT Spine
	{
		OFFSET 0.028270 2.035590 -0.193380 
		CHANNELS 3 Zrotation Yrotation Xrotation
		JOINT Spine1
		{
			OFFSET 0.056720 2.048850 -0.042750 
			CHANNELS 3 Zrotation Yrotation Xrotation
			JOINT Neck1
			{
				OFFSET -0.054170 1.746240 0.172020 
				CHANNELS 3 Zrotation Yrotation Xrotation
				JOINT Head
				{
					OFFSET 0.104070 1.761360 -0.123970 
					CHANNELS 3 Zrotation Yrotation Xrotation
					End Site
					{
						OFFSET 0.000000 0.000000 0.000000 
					}
				}
			}
			JOINT LeftArm
			{
				OFFSET 3.362410 1.200890 -0.311210 
				CHANNELS 3 Zrotation Yrotation Xrotation
				JOINT LeftForeArm
				{
					OFFSET 4.983000 -0.000000 -0.000000 
					CHANNELS 3 Zrotation Yrotation Xrotation
					JOINT LeftHand
					{
						OFFSET 3.483560 -0.000000 -0.000000 
						CHANNELS 3 Zrotation Yrotation Xrotation
						JOINT LeftHandIndex1
						{
							OFFSET 0.715260 -0.000000 -0.000000 
							CHANNELS 3 Zrotation Yrotation Xrotation
							End Site
							{
								OFFSET 0.000000 0.000000 0.000000 
							}
						}
					}
				}
			}
			JOINT RightArm
			{
				OFFSET -3.136600 1.374050 -0.404650 
				CHANNELS 3 Zrotation Yrotation Xrotation
				JOINT RightForeArm
				{
					OFFSET -5.241900 -0.000000 -0.000000 
					CHANNELS 3 Zrotation Yrotation Xrotation
					JOINT RightHand
					{
						OFFSET -3.444170 -0.000000 -0.000000 
						CHANNELS 3 Zrotation Yrotation Xrotation
						JOINT RightHandIndex1
						{
							OFFSET -0.622530 -0.000000 -0.000000 
							CHANNELS 3 Zrotation Yrotation Xrotation
							End Site
							{
								OFFSET 0.000000 0.000000 0.000000 
							}
						}
					}
				}
			}
		}
	}
}
MOTION
Frames: 16
Frame Time: 0.041667
45.212518 16.497366 -4.748757 178.139004 14.756688 -168.669731 -9.554895 12.878418 -49.291111 9.523914 17.561964 55.432986 0.051542 4.068519 15.404989 0.478600 -4.436500 -12.308000 10.836316 -21.006122 -48.777130 -15.765855 -18.359712 75.542118 -4.261082 11.182022 5.290474 -0.071200 1.721800 -4.737400 -0.853071 3.034881 -2.218821 -2.563483 2.980855 -0.466039 0.726869 5.773849 1.455239 -0.532500 1.967500 9.242000 -33.640528 -16.055164 54.953414 43.679520 -44.959200 -27.407213 -1.207277 -1.264420 -19.620885 -7.125000 0.000000 0.000000 42.777203 11.160613 40.868274 -55.552767 48.319477 -38.372574 1.263864 3.511341 -12.154014 7.125000 0.000000 0.000000 
45.196584 16.525279 -4.802956 178.534935 15.097223 -168.524011 -9.579454 13.361653 -49.307771 9.537415 17.464292 55.410663 0.139831 3.887522 15.337487 0.524000 -4.638900 -12.881600 9.980045 -21.112357 -49.100370 -15.793826 -18.278509 76.031358 -4.617614 13.889133 9.019330 -0.200000 2.879600 -7.943700 -0.897842 3.224522 -2.210665 -2.505876 3.085328 -0.515473 0.666148 5.776894 1.343437 -0.555500 1.977900 9.118200 -32.384481 -15.978908 55.765143 43.257548 -44.698433 -27.025605 -1.188499 -1.342701 -20.067920 -7.125000 0.000000 0.000000 43.247536 10.998144 41.040251 -56.095558 48.540921 -38.808116 1.238895 3.466026 -12.021904 7.125000 0.000000 0.000000 
45.182278 16.562148 -4.854363 178.982688 15.361924 -168.282038 -9.448035 13.688565 -49.280964 9.517764 17.367274 55.313705 0.293692 3.570157 15.295452 0.471600 -4.404600 -12.218000 9.075670 -21.015093 -49.195272 -15.654098 -18.191653 76.014699 -4.941337 16.730736 11.912422 -0.327600 3.678600 -10.174100 -0.934073 3.400403 -2.204402 -2.523586 3.179770 -0.504772 0.615985 5.774942 1.287407 -0.617300 1.988200 9.041000 -31.130104 -15.852271 56.661492 43.322381 -44.651976 -27.084411 -1.120829 -1.492801 -20.428700 -7.125000 0.000000 0.000000 43.696595 10.821082 41.125353 -56.657611 48.767084 -39.293294 1.213957 3.429403 -11.898368 7.125000 0.000000 0.000000 
45.171811 16.596924 -4.910538 179.431292 15.669273 -167.907070 -9.254750 13.859484 -49.271195 9.489521 17.285328 55.187534 0.414353 3.321573 15.205901 0.391500 -4.017800 -11.126600 8.015015 -20.633005 -49.061709 -15.310585 -18.090377 75.435199 -5.162264 19.674428 14.719750 -0.248800 3.209400 -8.862400 -0.969239 3.545673 -2.196061 -2.531999 3.249926 -0.317042 0.618359 5.750714 1.303963 -0.604200 1.984800 9.036000 -29.925657 -15.718412 57.494975 43.615719 -44.717866 -27.373791 -1.057177 -1.621943 -20.839011 -7.125000 0.000000 0.000000 44.002567 10.692885 41.314566 -57.328963 49.023202 -39.871896 1.211667 3.409870 -12.036628 7.125000 0.000000 0.000000 
45.177044 16.625302 -4.947523 179.849049 15.636543 -167.694206 -9.022083 13.864144 -49.120896 9.448286 17.225572 54.930637 0.293957 3.620130 15.177793 0.489300 -4.485100 -12.445700 7.057347 -20.426729 -48.552481 -15.047713 -17.961995 74.369773 -5.136219 18.613698 14.446782 -0.388700 4.003700 -11.087200 -0.971007 3.518895 -2.196180 -2.356505 3.217089 -0.314572 0.627532 5.783223 1.280399 -0.521400 2.003600 9.002700 -28.645761 -15.497450 58.266090 43.980658 -44.784019 -27.763403 -1.015142 -1.760019 -21.208215 -7.125000 0.000000 0.000000 44.153279 10.560919 41.641383 -58.056487 49.270159 -40.487645 1.169398 3.399667 -12.220682 7.125000 0.000000 0.000000 
45.199840 16.647400 -4.965783 -179.750108 15.488787 -167.274333 -8.790643 13.875140 -49.224255 9.383670 17.145403 54.590526 0.191511 3.886351 15.341400 0.596200 -4.943200 -13.746600 6.281383 -20.106502 -48.094199 -14.862309 -17.816433 72.860793 -4.361728 12.661980 11.979969 -0.750100 5.531900 -15.432200 -0.956635 3.500470 -2.206677 -2.108298 3.158264 -0.277306 0.618321 5.824964 1.281004 -0.496300 2.023000 8.974800 -27.439865 -15.446301 59.041229 44.182482 -44.768806 -27.966315 -0.969875 -1.886721 -21.294577 -7.125000 0.000000 0.000000 44.258113 10.342971 41.938671 -58.700635 49.503902 -41.055393 1.107145 3.390021 -12.302075 7.125000 0.000000 0.000000 
45.242292 16.688107 -4.956595 -179.553629 15.059206 -167.215117 -8.464818 13.713243 -48.938378 9.215731 17.066613 54.078174 0.275038 3.793418 15.783590 0.583800 -4.892300 -13.601500 5.210247 -19.720597 -46.970570 -14.443674 -17.618544 70.745045 -3.207617 7.372170 10.382857 -0.665700 5.217900 -14.531100 -0.939946 3.338381 -2.225680 -1.892195 3.055352 -0.491474 0.585666 5.802924 1.297924 -0.568200 2.007100 9.055400 -26.096562 -15.465502 59.731339 44.225039 -44.627030 -28.035480 -0.933413 -1.974211 -21.388184 -7.125000 0.000000 0.000000 44.550704 10.173360 42.105620 -59.306335 49.684413 -41.566441 1.123307 3.361240 -12.166912 7.125000 0.000000 0.000000 
45.281371 16.725092 -4.955548 -179.416189 14.903543 -167.018128 -8.193278 13.544921 -48.744815 9.072609 16.993108 53.579842 0.224456 3.980593 16.083140 0.581600 -4.883400 -13.576300 3.888353 -18.820708 -45.658133 -13.765205 -17.374952 68.101101 -2.324571 4.046751 9.479470 -0.578800 4.871900 -13.543500 -0.937709 3.369232 -2.252212 -1.770754 3.045985 -0.629579 0.540405 5.648291 1.377207 -0.688000 1.922700 9.185100 -24.992566 -15.579248 60.501341 44.359063 -44.552730 -28.143234 -0.867654 -2.032373 -21.323443 -7.125000 0.000000 0.000000 44.756857 9.870473 41.886829 -59.716058 49.817203 -42.037749 1.086851 3.337057 -12.293547 7.125000 0.000000 0.000000 
45.318007 16.751145 -4.961596 -179.354131 14.989806 -166.687972 -8.067093 13.511966 -48.757523 8.951055 16.913231 53.118554 0.119685 4.271038 16.290659 0.562400 -4.803400 -13.348700 2.506089 -17.683645 -44.384484 -12.888118 -17.053032 65.090457 -1.921263 2.493911 9.263886 -0.601200 4.963500 -13.804600 -0.922397 3.513085 -2.267981 -1.467193 3.060402 -0.692442 0.570310 5.700885 1.366688 -0.518500 1.938300 9.088900 -24.513630 -15.864713 61.043569 44.512218 -44.569434 -28.211233 -0.760957 -2.035575 -21.037072 -7.125000 0.000000 0.000000 44.288026 9.392766 41.807145 -60.124753 49.964709 -42.631792 1.075598 3.390597 -12.478891 7.125000 0.000000 0.000000 
45.379532 16.772894 -4.975437 -179.161780 15.572408 -166.291403 -7.965125 14.057797 -48.870190 8.863793 16.735947 52.712376 0.199930 4.170589 16.536132 0.466400 -4.380400 -12.149400 1.263309 -16.005736 -43.080292 -11.872021 -16.744301 61.928801 -1.868213 2.014586 9.561491 -0.675000 5.253600 -14.633200 -0.951371 3.974215 -2.253579 -1.274850 3.237225 -0.460208 0.614262 5.566828 1.344819 -0.434800 1.883100 8.965700 -23.739965 -16.314055 61.525830 44.782592 -44.616116 -28.387204 -0.679430 -2.104683 -21.157572 -7.125000 0.000000 0.000000 44.068698 8.970484 41.707714 -60.528845 50.148259 -43.180999 1.121727 3.434335 -12.859982 7.125000 0.000000 0.000000 
45.454666 16.791270 -4.960084 -179.088322 15.737965 -166.123356 -7.699148 14.215570 -48.721033 8.744055 16.602166 52.252550 0.261819 4.124887 16.869228 0.402500 -4.073000 -11.282200 0.169756 -14.605546 -41.766927 -10.877608 -16.383640 58.911634 -2.047595 2.169089 10.208328 -0.816700 5.766500 -16.108300 -0.961850 3.881227 -2.257304 -1.098246 3.169363 -0.424333 0.618542 5.699283 1.274099 -0.354500 1.954400 8.887100 -22.667296 -16.235763 61.386492 44.976736 -44.587033 -28.750552 -0.662525 -2.223194 -21.337172 -7.125000 0.000000 0.000000 44.162559 9.129559 41.852017 -60.486263 50.134620 -43.045453 1.034783 3.388909 -12.475253 7.125000 0.000000 0.000000 
45.537824 16.805576 -4.936940 -179.092006 15.822429 -166.063007 -7.450719 14.248243 -48.524286 8.651325 16.500660 51.788887 0.110657 4.539014 17.116962 0.441800 -4.264700 -11.822500 -0.774822 -13.476423 -40.584248 -9.947026 -15.979486 56.139827 -2.416665 2.833290 11.093305 -1.002300 6.370800 -17.864200 -0.965838 3.824624 -2.266999 -1.011091 3.128753 -0.483556 0.594642 5.796836 1.251004 -0.354100 1.998500 8.885500 -22.102454 -16.326201 61.033430 44.898930 -44.479473 -28.793452 -0.645894 -2.206580 -21.075977 -7.125000 0.000000 0.000000 44.213737 9.151761 41.939032 -60.627644 50.171830 -43.149228 0.985086 3.388393 -12.485607 7.125000 0.000000 0.000000 
45.645872 16.827558 -4.879717 -179.357397 15.533772 -166.391202 -7.204381 14.130873 -48.005779 8.466382 16.407470 51.160985 0.056480 4.791980 17.612586 0.448300 -4.295800 -11.910500 -1.730786 -12.630351 -39.262353 -9.158858 -15.575403 53.805122 -2.896768 3.805353 12.195210 -1.061300 6.549900 -18.388500 -0.947293 3.673677 -2.278611 -0.811317 3.052271 -0.878837 0.554086 5.852072 1.146725 -0.376500 2.019700 8.828500 -21.862341 -16.616826 60.438934 44.641630 -44.286800 -28.596879 -0.630381 -2.113543 -20.761351 -7.125000 0.000000 0.000000 44.097445 9.072597 41.968463 -60.864377 50.200830 -43.401024 1.004972 3.406107 -12.611457 7.125000 0.000000 0.000000 
45.753339 16.841863 -4.834358 -179.544052 15.536994 -166.524289 -6.890983 14.044475 -47.510167 8.286095 16.290380 50.528253 0.032658 4.969844 17.986010 0.378700 -3.952100 -10.941900 -2.570863 -11.585311 -38.245566 -8.488401 -15.262921 51.935832 -3.378958 4.871118 13.529771 -1.020100 6.425300 -18.023500 -0.940243 3.613237 -2.266035 -0.721508 3.017704 -0.936501 0.442023 5.831657 1.066959 -0.512100 2.002600 8.747900 -21.674687 -16.935515 59.577800 44.490800 -44.165396 -28.519101 -0.645011 -2.077304 -20.696849 -7.125000 0.000000 0.000000 44.037029 9.209286 41.971917 -60.781319 50.156405 -43.298820 1.036939 3.398761 -12.429673 7.125000 0.000000 0.000000 
45.872436 16.854075 -4.789580 -179.598457 15.577714 -166.547892 -6.519476 14.070864 -47.125476 8.135709 16.142691 49.874833 -0.046067 5.286327 18.475144 0.397900 -4.049900 -11.217100 -2.960550 -10.777431 -37.567743 -8.003103 -15.061988 50.636793 -3.638819 5.405610 14.533440 -1.166400 6.855900 -19.289000 -0.934196 3.580742 -2.247623 -0.722591 2.989982 -0.802892 0.398355 5.840194 1.106115 -0.544500 1.993600 8.798300 -21.683741 -17.253089 58.464427 44.381528 -44.077635 -28.486153 -0.679522 -2.064775 -20.539570 -7.125000 0.000000 0.000000 43.954984 9.470820 41.958023 -60.444262 50.038508 -42.935934 1.050890 3.385721 -12.153112 7.125000 0.000000 0.000000 
46.015375 16.871056 -4.734568 -179.766334 15.583387 -166.639580 -6.167463 14.068429 -46.717431 7.991405 16.000437 49.192809 -0.206426 5.788738 18.962113 0.456400 -4.333700 -12.017400 -3.157759 -10.138001 -37.036679 -7.728992 -14.983039 49.957495 -3.811030 5.776658 14.886451 -1.489400 7.710000 -21.836600 -0.920522 3.536346 -2.236452 -0.666972 2.956255 -0.751759 0.359532 5.931070 1.153753 -0.593600 2.023900 8.842700 -21.875799 -17.520623 57.191254 44.461645 -44.074722 -28.635484 -0.722680 -2.080611 -20.183094 -7.125000 0.000000 0.000000 43.897518 9.686835 42.049265 -60.016853 49.900090 -42.462971 1.072551 3.381939 -12.044969 7.125000 0.000000 0.000000 
